<mxfile host="app.diagrams.net" agent="Mozilla/5.0 (Windows NT 10.0; Win64; x64) AppleWebKit/537.36 (KHTML, like Gecko) Chrome/133.0.0.0 Safari/537.36" version="26.0.14">
  <diagram name="Page-1" id="GaQjfFJ9bCtF0tFXYjhQ">
    <mxGraphModel dx="958" dy="546" grid="1" gridSize="10" guides="1" tooltips="1" connect="1" arrows="1" fold="1" page="1" pageScale="1" pageWidth="827" pageHeight="1169" math="1" shadow="0">
      <root>
        <mxCell id="0" />
        <mxCell id="1" parent="0" />
        <mxCell id="_HUgXo8m6xiWr_ruXOVi-2" value="" style="rounded=0;whiteSpace=wrap;html=1;rotation=45;fillColor=#f8cecc;strokeColor=#b85450;gradientColor=#ea6b66;" parent="1" vertex="1">
          <mxGeometry x="380" y="972.5699999999999" width="120" height="60" as="geometry" />
        </mxCell>
        <mxCell id="T1mWJVR4Jfj2hTx4SNUG-9" value="" style="endArrow=classic;html=1;rounded=0;exitX=0.25;exitY=0;exitDx=0;exitDy=0;" parent="1" source="T1mWJVR4Jfj2hTx4SNUG-4" edge="1">
          <mxGeometry width="50" height="50" relative="1" as="geometry">
            <mxPoint x="230" y="640" as="sourcePoint" />
            <mxPoint x="70" y="470" as="targetPoint" />
          </mxGeometry>
        </mxCell>
        <mxCell id="T1mWJVR4Jfj2hTx4SNUG-31" value="&lt;font style=&quot;font-size: 10px;&quot;&gt;RNN trainning&lt;/font&gt;" style="edgeLabel;html=1;align=center;verticalAlign=middle;resizable=0;points=[];" parent="T1mWJVR4Jfj2hTx4SNUG-9" vertex="1" connectable="0">
          <mxGeometry x="-0.6804" relative="1" as="geometry">
            <mxPoint x="1" as="offset" />
          </mxGeometry>
        </mxCell>
        <mxCell id="T1mWJVR4Jfj2hTx4SNUG-28" value="" style="endArrow=classic;html=1;rounded=0;exitX=0.75;exitY=0;exitDx=0;exitDy=0;" parent="1" source="T1mWJVR4Jfj2hTx4SNUG-4" edge="1">
          <mxGeometry width="50" height="50" relative="1" as="geometry">
            <mxPoint x="360" y="690" as="sourcePoint" />
            <mxPoint x="280" y="470" as="targetPoint" />
          </mxGeometry>
        </mxCell>
        <mxCell id="T1mWJVR4Jfj2hTx4SNUG-30" value="&lt;font style=&quot;font-size: 10px;&quot;&gt;GP trainning&lt;/font&gt;" style="edgeLabel;html=1;align=center;verticalAlign=middle;resizable=0;points=[];" parent="T1mWJVR4Jfj2hTx4SNUG-28" vertex="1" connectable="0">
          <mxGeometry x="-0.6651" y="2" relative="1" as="geometry">
            <mxPoint y="3" as="offset" />
          </mxGeometry>
        </mxCell>
        <mxCell id="T1mWJVR4Jfj2hTx4SNUG-12" value="" style="endArrow=classic;html=1;rounded=0;exitX=1;exitY=0.25;exitDx=0;exitDy=0;entryX=0;entryY=0.25;entryDx=0;entryDy=0;" parent="1" source="T1mWJVR4Jfj2hTx4SNUG-2" target="T1mWJVR4Jfj2hTx4SNUG-5" edge="1">
          <mxGeometry width="50" height="50" relative="1" as="geometry">
            <mxPoint x="150" y="610" as="sourcePoint" />
            <mxPoint x="150" y="570" as="targetPoint" />
          </mxGeometry>
        </mxCell>
        <mxCell id="T1mWJVR4Jfj2hTx4SNUG-19" value="&lt;font style=&quot;font-size: 10px;&quot;&gt;Posterior&amp;nbsp;&lt;/font&gt;&lt;div style=&quot;font-size: 10px;&quot;&gt;&lt;font style=&quot;font-size: 10px;&quot;&gt;means&lt;/font&gt;&lt;/div&gt;" style="text;html=1;align=center;verticalAlign=middle;resizable=0;points=[];autosize=1;strokeColor=none;fillColor=none;" parent="1" vertex="1">
          <mxGeometry x="275" y="493" width="70" height="40" as="geometry" />
        </mxCell>
        <mxCell id="T1mWJVR4Jfj2hTx4SNUG-22" value="&lt;div style=&quot;&quot;&gt;&lt;span style=&quot;font-size: 10px; text-wrap: nowrap;&quot;&gt;Predicted&lt;/span&gt;&lt;/div&gt;&lt;div style=&quot;&quot;&gt;&lt;span style=&quot;font-size: 10px; text-wrap: nowrap;&quot;&gt;positions&lt;/span&gt;&lt;/div&gt;" style="text;whiteSpace=wrap;html=1;align=center;" parent="1" vertex="1">
          <mxGeometry x="447" y="493" width="60" height="40" as="geometry" />
        </mxCell>
        <mxCell id="T1mWJVR4Jfj2hTx4SNUG-1" value="&lt;b&gt;RNN&lt;/b&gt;" style="rounded=0;whiteSpace=wrap;html=1;" parent="1" vertex="1">
          <mxGeometry x="69" y="500" width="80" height="60" as="geometry" />
        </mxCell>
        <mxCell id="T1mWJVR4Jfj2hTx4SNUG-2" value="&lt;b&gt;GP regression&lt;/b&gt;" style="rounded=0;whiteSpace=wrap;html=1;" parent="1" vertex="1">
          <mxGeometry x="200" y="500" width="80" height="60" as="geometry" />
        </mxCell>
        <mxCell id="T1mWJVR4Jfj2hTx4SNUG-3" value="&lt;div&gt;&lt;b&gt;Obstacle positions&lt;/b&gt;&lt;/div&gt;" style="rounded=0;whiteSpace=wrap;html=1;" parent="1" vertex="1">
          <mxGeometry x="280" y="600" width="80" height="60" as="geometry" />
        </mxCell>
        <mxCell id="T1mWJVR4Jfj2hTx4SNUG-4" value="&lt;b&gt;Collection &amp;amp; Pre&lt;/b&gt;&lt;b style=&quot;background-color: initial;&quot;&gt;processing&lt;/b&gt;" style="rounded=0;whiteSpace=wrap;html=1;" parent="1" vertex="1">
          <mxGeometry x="130" y="600" width="91" height="60" as="geometry" />
        </mxCell>
        <mxCell id="T1mWJVR4Jfj2hTx4SNUG-5" value="&lt;b&gt;Uncertainty&lt;/b&gt;&lt;div&gt;&lt;b&gt;quantification&lt;/b&gt;&lt;/div&gt;" style="rounded=0;whiteSpace=wrap;html=1;" parent="1" vertex="1">
          <mxGeometry x="347" y="500" width="100" height="60" as="geometry" />
        </mxCell>
        <mxCell id="T1mWJVR4Jfj2hTx4SNUG-6" value="&lt;b&gt;Confidance&lt;/b&gt;&lt;div&gt;&lt;b&gt;regions&lt;/b&gt;&lt;/div&gt;" style="rounded=0;whiteSpace=wrap;html=1;" parent="1" vertex="1">
          <mxGeometry x="521" y="500" width="103" height="60" as="geometry" />
        </mxCell>
        <mxCell id="T1mWJVR4Jfj2hTx4SNUG-7" value="&lt;b&gt;Receding horizon&lt;/b&gt;&lt;div&gt;&lt;b&gt;planning&lt;/b&gt;&lt;/div&gt;" style="rounded=0;whiteSpace=wrap;html=1;" parent="1" vertex="1">
          <mxGeometry x="521" y="600" width="103" height="60" as="geometry" />
        </mxCell>
        <mxCell id="T1mWJVR4Jfj2hTx4SNUG-8" value="" style="endArrow=classic;html=1;rounded=0;exitX=0;exitY=0.5;exitDx=0;exitDy=0;entryX=1;entryY=0.5;entryDx=0;entryDy=0;" parent="1" source="T1mWJVR4Jfj2hTx4SNUG-3" target="T1mWJVR4Jfj2hTx4SNUG-4" edge="1">
          <mxGeometry width="50" height="50" relative="1" as="geometry">
            <mxPoint x="416.5" y="690" as="sourcePoint" />
            <mxPoint x="466.5" y="640" as="targetPoint" />
          </mxGeometry>
        </mxCell>
        <mxCell id="T1mWJVR4Jfj2hTx4SNUG-10" value="" style="endArrow=classic;html=1;rounded=0;entryX=0;entryY=0.5;entryDx=0;entryDy=0;exitX=0.5;exitY=0;exitDx=0;exitDy=0;" parent="1" source="T1mWJVR4Jfj2hTx4SNUG-2" target="T1mWJVR4Jfj2hTx4SNUG-1" edge="1">
          <mxGeometry width="50" height="50" relative="1" as="geometry">
            <mxPoint x="380" y="515" as="sourcePoint" />
            <mxPoint x="380" y="470" as="targetPoint" />
            <Array as="points">
              <mxPoint x="240" y="490" />
              <mxPoint x="50" y="490" />
              <mxPoint x="50" y="530" />
              <mxPoint x="60" y="530" />
            </Array>
          </mxGeometry>
        </mxCell>
        <mxCell id="T1mWJVR4Jfj2hTx4SNUG-11" value="" style="endArrow=classic;html=1;rounded=0;exitX=1;exitY=0.5;exitDx=0;exitDy=0;entryX=0;entryY=0.5;entryDx=0;entryDy=0;" parent="1" source="T1mWJVR4Jfj2hTx4SNUG-1" target="T1mWJVR4Jfj2hTx4SNUG-2" edge="1">
          <mxGeometry width="50" height="50" relative="1" as="geometry">
            <mxPoint x="150" y="610" as="sourcePoint" />
            <mxPoint x="150" y="570" as="targetPoint" />
          </mxGeometry>
        </mxCell>
        <mxCell id="T1mWJVR4Jfj2hTx4SNUG-13" value="" style="endArrow=classic;html=1;rounded=0;entryX=0;entryY=0.75;entryDx=0;entryDy=0;exitX=1;exitY=0.75;exitDx=0;exitDy=0;" parent="1" target="T1mWJVR4Jfj2hTx4SNUG-5" edge="1" source="T1mWJVR4Jfj2hTx4SNUG-2">
          <mxGeometry width="50" height="50" relative="1" as="geometry">
            <mxPoint x="300" y="560" as="sourcePoint" />
            <mxPoint x="365" y="544" as="targetPoint" />
          </mxGeometry>
        </mxCell>
        <mxCell id="T1mWJVR4Jfj2hTx4SNUG-14" value="" style="endArrow=classic;html=1;rounded=0;exitX=1;exitY=0.25;exitDx=0;exitDy=0;entryX=0;entryY=0.25;entryDx=0;entryDy=0;" parent="1" source="T1mWJVR4Jfj2hTx4SNUG-5" target="T1mWJVR4Jfj2hTx4SNUG-6" edge="1">
          <mxGeometry width="50" height="50" relative="1" as="geometry">
            <mxPoint x="374" y="525" as="sourcePoint" />
            <mxPoint x="414" y="525" as="targetPoint" />
          </mxGeometry>
        </mxCell>
        <mxCell id="T1mWJVR4Jfj2hTx4SNUG-15" value="" style="endArrow=classic;html=1;rounded=0;exitX=1;exitY=0.75;exitDx=0;exitDy=0;entryX=0;entryY=0.75;entryDx=0;entryDy=0;" parent="1" source="T1mWJVR4Jfj2hTx4SNUG-5" target="T1mWJVR4Jfj2hTx4SNUG-6" edge="1">
          <mxGeometry width="50" height="50" relative="1" as="geometry">
            <mxPoint x="384" y="535" as="sourcePoint" />
            <mxPoint x="424" y="535" as="targetPoint" />
          </mxGeometry>
        </mxCell>
        <mxCell id="T1mWJVR4Jfj2hTx4SNUG-16" value="" style="endArrow=classic;html=1;rounded=0;exitX=0.5;exitY=1;exitDx=0;exitDy=0;entryX=0.5;entryY=0;entryDx=0;entryDy=0;" parent="1" source="T1mWJVR4Jfj2hTx4SNUG-6" target="T1mWJVR4Jfj2hTx4SNUG-7" edge="1">
          <mxGeometry width="50" height="50" relative="1" as="geometry">
            <mxPoint x="540" y="555" as="sourcePoint" />
            <mxPoint x="580" y="555" as="targetPoint" />
          </mxGeometry>
        </mxCell>
        <mxCell id="_HUgXo8m6xiWr_ruXOVi-1" value="Collision avoidances" style="edgeLabel;html=1;align=center;verticalAlign=middle;resizable=0;points=[];" parent="T1mWJVR4Jfj2hTx4SNUG-16" vertex="1" connectable="0">
          <mxGeometry x="-0.0643" relative="1" as="geometry">
            <mxPoint as="offset" />
          </mxGeometry>
        </mxCell>
        <mxCell id="T1mWJVR4Jfj2hTx4SNUG-21" value="&lt;font style=&quot;font-size: 10px;&quot;&gt;Prior&lt;/font&gt;&lt;div style=&quot;font-size: 10px;&quot;&gt;&lt;font style=&quot;font-size: 10px;&quot;&gt;means&amp;nbsp;&lt;/font&gt;&lt;/div&gt;" style="text;html=1;align=center;verticalAlign=middle;resizable=0;points=[];autosize=1;strokeColor=none;fillColor=none;" parent="1" vertex="1">
          <mxGeometry x="140" y="510" width="60" height="40" as="geometry" />
        </mxCell>
        <mxCell id="T1mWJVR4Jfj2hTx4SNUG-23" value="&lt;span style=&quot;color: rgb(0, 0, 0); font-family: Helvetica; font-style: normal; font-variant-ligatures: normal; font-variant-caps: normal; font-weight: 400; letter-spacing: normal; orphans: 2; text-align: center; text-indent: 0px; text-transform: none; widows: 2; word-spacing: 0px; -webkit-text-stroke-width: 0px; white-space: nowrap; background-color: rgb(251, 251, 251); text-decoration-thickness: initial; text-decoration-style: initial; text-decoration-color: initial; float: none; display: inline !important;&quot;&gt;&lt;font style=&quot;font-size: 10px;&quot;&gt;Uncertainties&lt;/font&gt;&lt;/span&gt;" style="text;whiteSpace=wrap;html=1;" parent="1" vertex="1">
          <mxGeometry x="450" y="540" width="60" height="20" as="geometry" />
        </mxCell>
        <mxCell id="T1mWJVR4Jfj2hTx4SNUG-26" value="&lt;font style=&quot;font-size: 10px;&quot;&gt;Posterior&amp;nbsp;&lt;/font&gt;&lt;div style=&quot;font-size: 10px;&quot;&gt;&lt;font style=&quot;font-size: 10px;&quot;&gt;uncertainties&lt;/font&gt;&lt;/div&gt;" style="text;html=1;align=center;verticalAlign=middle;resizable=0;points=[];autosize=1;strokeColor=none;fillColor=none;" parent="1" vertex="1">
          <mxGeometry x="270" y="524" width="80" height="40" as="geometry" />
        </mxCell>
        <mxCell id="_HUgXo8m6xiWr_ruXOVi-3" value="" style="endArrow=none;html=1;rounded=0;exitX=0.5;exitY=1;exitDx=0;exitDy=0;entryX=0.5;entryY=0;entryDx=0;entryDy=0;dashed=1;" parent="1" source="_HUgXo8m6xiWr_ruXOVi-2" target="_HUgXo8m6xiWr_ruXOVi-2" edge="1">
          <mxGeometry width="50" height="50" relative="1" as="geometry">
            <mxPoint x="501" y="1002.5699999999999" as="sourcePoint" />
            <mxPoint x="551" y="952.5699999999999" as="targetPoint" />
          </mxGeometry>
        </mxCell>
        <mxCell id="_HUgXo8m6xiWr_ruXOVi-5" value="" style="endArrow=none;html=1;rounded=0;exitX=0;exitY=0.5;exitDx=0;exitDy=0;entryX=1;entryY=0.5;entryDx=0;entryDy=0;dashed=1;" parent="1" source="_HUgXo8m6xiWr_ruXOVi-2" target="_HUgXo8m6xiWr_ruXOVi-2" edge="1">
          <mxGeometry width="50" height="50" relative="1" as="geometry">
            <mxPoint x="451" y="1112.57" as="sourcePoint" />
            <mxPoint x="451" y="1052.57" as="targetPoint" />
          </mxGeometry>
        </mxCell>
        <mxCell id="_HUgXo8m6xiWr_ruXOVi-6" value="" style="ellipse;whiteSpace=wrap;html=1;aspect=fixed;fillColor=#cce5ff;strokeColor=#36393d;" parent="1" vertex="1">
          <mxGeometry x="230" y="960" width="80" height="80" as="geometry" />
        </mxCell>
        <mxCell id="_HUgXo8m6xiWr_ruXOVi-7" value="$$\mathbf{s}_t$$" style="text;html=1;align=center;verticalAlign=middle;whiteSpace=wrap;rounded=0;" parent="1" vertex="1">
          <mxGeometry x="425" y="965.5699999999999" width="30" height="30" as="geometry" />
        </mxCell>
        <mxCell id="_HUgXo8m6xiWr_ruXOVi-8" value="" style="endArrow=none;html=1;rounded=0;exitX=0.5;exitY=1;exitDx=0;exitDy=0;entryX=0.5;entryY=0;entryDx=0;entryDy=0;dashed=1;" parent="1" source="_HUgXo8m6xiWr_ruXOVi-6" target="_HUgXo8m6xiWr_ruXOVi-6" edge="1">
          <mxGeometry width="50" height="50" relative="1" as="geometry">
            <mxPoint x="280" y="770" as="sourcePoint" />
            <mxPoint x="280" y="890" as="targetPoint" />
          </mxGeometry>
        </mxCell>
        <mxCell id="_HUgXo8m6xiWr_ruXOVi-9" value="" style="endArrow=none;html=1;rounded=0;exitX=1;exitY=0.5;exitDx=0;exitDy=0;entryX=0;entryY=0.5;entryDx=0;entryDy=0;dashed=1;" parent="1" source="_HUgXo8m6xiWr_ruXOVi-6" target="_HUgXo8m6xiWr_ruXOVi-6" edge="1">
          <mxGeometry width="50" height="50" relative="1" as="geometry">
            <mxPoint x="290" y="780" as="sourcePoint" />
            <mxPoint x="290" y="900" as="targetPoint" />
          </mxGeometry>
        </mxCell>
        <mxCell id="_HUgXo8m6xiWr_ruXOVi-10" value="$$\mathbf{p}_t^o$$" style="text;html=1;align=center;verticalAlign=middle;whiteSpace=wrap;rounded=0;" parent="1" vertex="1">
          <mxGeometry x="246" y="974" width="30" height="30" as="geometry" />
        </mxCell>
        <mxCell id="_HUgXo8m6xiWr_ruXOVi-11" value="" style="endArrow=classic;html=1;rounded=0;entryX=0;entryY=1;entryDx=0;entryDy=0;" parent="1" target="_HUgXo8m6xiWr_ruXOVi-6" edge="1">
          <mxGeometry width="50" height="50" relative="1" as="geometry">
            <mxPoint x="270" y="1000" as="sourcePoint" />
            <mxPoint x="380" y="830" as="targetPoint" />
          </mxGeometry>
        </mxCell>
        <mxCell id="_HUgXo8m6xiWr_ruXOVi-12" value="$$R$$" style="text;html=1;align=center;verticalAlign=middle;whiteSpace=wrap;rounded=0;" parent="1" vertex="1">
          <mxGeometry x="221" y="1025" width="26" height="20" as="geometry" />
        </mxCell>
        <mxCell id="_HUgXo8m6xiWr_ruXOVi-13" value="" style="curved=1;endArrow=classic;html=1;rounded=0;endFill=1;fillColor=#ffcc99;strokeColor=#FFB570;" parent="1" edge="1">
          <mxGeometry width="50" height="50" relative="1" as="geometry">
            <mxPoint x="270" y="1000" as="sourcePoint" />
            <mxPoint x="380" y="900" as="targetPoint" />
            <Array as="points">
              <mxPoint x="290" y="940" />
              <mxPoint x="330" y="910" />
            </Array>
          </mxGeometry>
        </mxCell>
        <mxCell id="_HUgXo8m6xiWr_ruXOVi-16" value="" style="curved=1;endArrow=classic;html=1;rounded=0;" parent="1" edge="1">
          <mxGeometry width="50" height="50" relative="1" as="geometry">
            <mxPoint x="440" y="1002.5699999999999" as="sourcePoint" />
            <mxPoint x="571" y="962.5699999999999" as="targetPoint" />
            <Array as="points">
              <mxPoint x="496" y="1032.57" />
              <mxPoint x="556" y="1002.5699999999999" />
            </Array>
          </mxGeometry>
        </mxCell>
        <mxCell id="_HUgXo8m6xiWr_ruXOVi-17" value="&lt;b&gt;&lt;font color=&quot;#7ea6e0&quot;&gt;Obstacle&lt;/font&gt;&lt;/b&gt;" style="text;html=1;align=center;verticalAlign=middle;whiteSpace=wrap;rounded=0;" parent="1" vertex="1">
          <mxGeometry x="175" y="951" width="60" height="30" as="geometry" />
        </mxCell>
        <mxCell id="_HUgXo8m6xiWr_ruXOVi-18" value="&lt;font color=&quot;#ff3333&quot;&gt;&lt;b&gt;Robot&lt;/b&gt;&lt;/font&gt;" style="text;html=1;align=center;verticalAlign=middle;whiteSpace=wrap;rounded=0;" parent="1" vertex="1">
          <mxGeometry x="461" y="942.5699999999999" width="60" height="30" as="geometry" />
        </mxCell>
      </root>
    </mxGraphModel>
  </diagram>
</mxfile>
